HIERARCHY
ROOT Hips
{
	OFFSET -0.001795 -0.223333 0.028219
	CHANNELS 6 Xposition Yposition Zposition Zrotation Yrotation Xrotation 
	JOINT LeftUpLeg
	{
		OFFSET 0.069520 -0.091406 -0.006815
		CHANNELS 3 Zrotation Yrotation Xrotation
		JOINT LeftLeg
		{
			OFFSET 0.034277 -0.375199 -0.004496
			CHANNELS 3 Zrotation Yrotation Xrotation
			JOINT LeftFoot
			{
				OFFSET -0.013596 -0.397961 -0.043693
				CHANNELS 3 Zrotation Yrotation Xrotation
				JOINT LeftToe
				{
					OFFSET 0.026358 -0.055791 0.119288
					CHANNELS 3 Zrotation Yrotation Xrotation
					End Site
					{
						OFFSET 0.000000 0.000000 0.000000
					}
				}
			}
		}
	}
	JOINT RightUpLeg
	{
		OFFSET -0.067670 -0.090522 -0.004320
		CHANNELS 3 Zrotation Yrotation Xrotation
		JOINT RightLeg
		{
			OFFSET -0.038290 -0.382569 -0.008850
			CHANNELS 3 Zrotation Yrotation Xrotation
			JOINT RightFoot
			{
				OFFSET 0.015774 -0.398415 -0.042312
				CHANNELS 3 Zrotation Yrotation Xrotation
				JOINT RightToe
				{
					OFFSET -0.025372 -0.048144 0.123348
					CHANNELS 3 Zrotation Yrotation Xrotation
					End Site
					{
						OFFSET 0.000000 0.000000 0.000000
					}
				}
			}
		}
	}
	JOINT Spine
	{
		OFFSET -0.002533 0.108963 -0.026696
		CHANNELS 3 Zrotation Yrotation Xrotation
		JOINT Spine1
		{
			OFFSET 0.005487 0.135180 0.001092
			CHANNELS 3 Zrotation Yrotation Xrotation
			JOINT Spine2
			{
				OFFSET 0.001457 0.052922 0.025425
				CHANNELS 3 Zrotation Yrotation Xrotation
				JOINT Neck
				{
					OFFSET -0.002778 0.213870 -0.042857
					CHANNELS 3 Zrotation Yrotation Xrotation
					JOINT Head
					{
						OFFSET 0.005152 0.064970 0.051349
						CHANNELS 3 Zrotation Yrotation Xrotation
						End Site
						{
							OFFSET 0.000000 0.000000 0.000000
						}
					}
				}
				JOINT LeftShoulder
				{
					OFFSET 0.078845 0.121749 -0.034090
					CHANNELS 3 Zrotation Yrotation Xrotation
					JOINT LeftArm
					{
						OFFSET 0.090977 0.030469 -0.008868
						CHANNELS 3 Zrotation Yrotation Xrotation
						JOINT LeftForeArm
						{
							OFFSET 0.259612 -0.012772 -0.027456
							CHANNELS 3 Zrotation Yrotation Xrotation
							JOINT LeftHand
							{
								OFFSET 0.249234 0.008986 -0.001171
								CHANNELS 3 Zrotation Yrotation Xrotation
								End Site
								{
									OFFSET 0.000000 0.000000 0.000000
								}
							}
						}
					}
				}
				JOINT RightShoulder
				{
					OFFSET -0.081759 0.118833 -0.038615
					CHANNELS 3 Zrotation Yrotation Xrotation
					JOINT RightArm
					{
						OFFSET -0.096012 0.032551 -0.009143
						CHANNELS 3 Zrotation Yrotation Xrotation
						JOINT RightForeArm
						{
							OFFSET -0.253742 -0.013329 -0.021401
							CHANNELS 3 Zrotation Yrotation Xrotation
							JOINT RightHand
							{
								OFFSET -0.255298 0.007772 -0.005559
								CHANNELS 3 Zrotation Yrotation Xrotation
								End Site
								{
									OFFSET 0.000000 0.000000 0.000000
								}
							}
						}
					}
				}
			}
		}
	}
}
MOTION
Frames: 14
Frame Time: 0.050000
-0.067388 0.116744 -0.053299 -3.448119 -0.110545 -83.553865 14.333135 2.221119 -0.080114 -1.205673 0.268381 -10.293819 -6.515262 8.323427 46.489294 0.000000 0.000000 0.000000 -9.896673 -1.790100 1.459067 3.772312 -0.598999 -8.625290 0.784088 -11.854530 45.934126 0.000000 0.000000 0.000000 -0.317144 1.562997 -39.067833 1.785228 -1.338290 7.183403 -0.325504 0.155695 41.171617 9.346131 -5.066068 -20.085868 0.000000 0.000000 0.000000 17.798410 1.411083 -0.256395 -59.713502 3.262506 -13.365702 -48.948754 -77.170416 44.294381 0.000000 0.000000 0.000000 -11.592182 -5.434934 -1.970797 48.549849 -6.725882 -10.353761 -0.994473 28.858856 0.245383 0.000000 0.000000 0.000000 
-0.067600 0.117252 -0.052845 -3.738310 -0.783955 -84.489287 15.691127 2.462575 0.541990 -1.974018 0.311143 -9.533605 -6.289206 8.477783 46.168343 0.000000 0.000000 0.000000 -8.545123 -1.569225 1.894521 2.880056 -0.509874 -6.687546 0.524964 -11.850305 44.228401 0.000000 0.000000 0.000000 -0.287123 1.609193 -38.792152 2.107208 -1.502250 7.184375 0.000195 -0.456070 40.713142 8.819405 -4.958324 -19.677387 0.000000 0.000000 0.000000 17.798853 1.391039 -0.404828 -62.594966 4.197384 -14.134300 -41.531931 -73.250304 36.089931 0.000000 0.000000 0.000000 -10.707758 -5.398804 -1.849193 49.673928 -6.739278 -10.846411 3.676998 25.646481 1.100133 0.000000 0.000000 0.000000 
-0.067965 0.114887 -0.052416 -4.118493 -1.214957 -85.184900 16.775829 2.645407 0.611221 -3.147643 0.368538 -8.812207 -6.553028 8.380192 46.436005 0.000000 0.000000 0.000000 -7.657242 -1.401238 1.274634 1.678375 -0.329803 -3.513871 0.342890 -11.747435 43.004461 0.000000 0.000000 0.000000 -0.668776 1.388567 -38.787887 2.592735 -1.698298 6.243350 -0.029574 -1.086915 41.663803 9.150959 -5.352291 -19.898223 0.000000 0.000000 0.000000 17.303101 1.459986 -0.580492 -63.852483 4.539898 -14.447692 -36.649624 -67.816035 29.406950 0.000000 0.000000 0.000000 -9.972273 -5.461858 -1.832945 51.038761 -7.399167 -11.734205 9.745349 24.716337 2.199102 0.000000 0.000000 0.000000 
-0.068488 0.114298 -0.052494 -4.370806 -1.776692 -85.577378 18.033444 2.871209 0.486965 -3.905341 0.419754 -8.220343 -6.799804 8.097959 45.978890 0.000000 0.000000 0.000000 -6.752507 -1.208396 0.985563 1.238766 -0.223458 -1.696432 -0.601339 -12.528651 41.969191 0.000000 0.000000 0.000000 -0.641353 1.429579 -38.851849 2.586474 -1.665042 6.074460 0.457110 -1.172869 42.030798 9.264244 -5.639177 -19.229641 0.000000 0.000000 0.000000 18.039617 0.593890 -0.436127 -65.573116 3.292612 -13.995046 -28.283822 -61.924698 20.964238 0.000000 0.000000 0.000000 -9.247900 -5.827975 -1.941125 51.029865 -7.122962 -11.767725 13.294254 22.617940 2.612569 0.000000 0.000000 0.000000 
-0.069050 0.114702 -0.052670 -4.558203 -2.054222 -85.595685 18.690766 2.959447 0.517643 -4.939601 0.471266 -8.083212 -6.562050 8.284806 45.786938 0.000000 0.000000 0.000000 -6.391607 -1.099936 0.299170 0.251521 -0.016390 0.325232 -0.989571 -12.671690 40.537265 0.000000 0.000000 0.000000 -0.827180 1.339094 -38.844170 2.937919 -1.874799 6.326308 0.555723 -1.330552 41.543722 9.771038 -6.101333 -18.933085 0.000000 0.000000 0.000000 17.394014 0.076073 -0.337675 -65.497761 2.519356 -13.427319 -26.185421 -57.133182 17.764515 0.000000 0.000000 0.000000 -8.753981 -5.609308 -1.862107 51.102429 -6.194302 -11.485995 14.052989 21.348292 2.590473 0.000000 0.000000 0.000000 
-0.069637 0.113910 -0.052855 -4.313715 -2.320862 -85.843657 19.129876 3.017935 0.961102 -5.411334 0.507386 -7.860016 -6.141420 8.481011 45.118138 0.000000 0.000000 0.000000 -5.751501 -0.956541 -0.085357 -0.737909 0.191961 1.633972 -1.583171 -13.168049 39.610548 0.000000 0.000000 0.000000 -0.566083 1.564061 -38.884805 3.002711 -1.868314 5.929910 0.534346 -1.457452 41.812844 9.531837 -6.170482 -18.115980 0.000000 0.000000 0.000000 17.536398 -0.223109 -0.342555 -65.459160 1.903911 -12.982972 -26.303405 -53.556404 16.533570 0.000000 0.000000 0.000000 -8.931264 -5.179046 -1.699462 51.011704 -5.084926 -11.136096 15.209123 20.563716 2.661744 0.000000 0.000000 0.000000 
-0.070315 0.113999 -0.052933 -4.051559 -2.645211 -85.610650 19.387852 3.070240 0.915750 -5.390339 0.515218 -7.832138 -5.836485 8.569588 44.595666 0.000000 0.000000 0.000000 -5.540855 -0.875521 -0.589073 -1.289476 0.334380 2.637555 -3.105831 -14.559302 37.398411 0.000000 0.000000 0.000000 -0.096249 1.965604 -39.380157 2.825088 -1.775558 6.124544 0.481198 -1.634769 41.507452 9.860154 -6.465618 -18.052913 0.000000 0.000000 0.000000 17.885855 -0.146435 -0.397965 -64.365817 2.219997 -12.796969 -28.123748 -52.015641 16.857375 0.000000 0.000000 0.000000 -9.148866 -4.623980 -1.488302 50.291674 -4.073798 -10.589730 15.024645 19.676373 2.494302 0.000000 0.000000 0.000000 
-0.070962 0.113318 -0.052877 -3.756403 -2.870443 -85.490132 19.620789 3.085499 1.184862 -5.734477 0.523996 -8.272557 -5.553837 8.735676 44.497975 0.000000 0.000000 0.000000 -5.764156 -0.857390 -1.380175 -1.312690 0.414776 3.978824 -3.551724 -15.015717 36.631971 0.000000 0.000000 0.000000 0.096940 2.182770 -39.671342 3.278648 -2.045099 6.516264 0.042596 -1.489909 41.135874 9.899702 -6.658148 -17.228396 0.000000 0.000000 0.000000 17.959116 -0.343076 -0.381301 -63.275948 2.477418 -12.639231 -27.890027 -50.549887 16.157276 0.000000 0.000000 0.000000 -9.223883 -4.408811 -1.415889 49.866597 -3.137995 -10.144639 13.991493 18.844629 2.235457 0.000000 0.000000 0.000000 
-0.071635 0.112726 -0.052614 -3.292986 -3.090317 -85.557718 19.845905 3.146799 1.387325 -5.716901 0.523565 -8.548190 -5.254412 9.039635 45.024122 0.000000 0.000000 0.000000 -6.344402 -0.933675 -1.934163 -0.088655 0.244382 4.917694 -4.035530 -15.622221 36.124135 0.000000 0.000000 0.000000 0.734386 2.702528 -39.791946 3.278304 -2.029737 6.423714 -0.389891 -1.408447 41.163949 9.989981 -6.809966 -16.809417 0.000000 0.000000 0.000000 18.405351 -0.276318 -0.404384 -61.561272 2.959670 -12.546154 -28.839265 -51.143091 16.727798 0.000000 0.000000 0.000000 -9.743827 -4.374023 -1.392144 48.801704 -2.698122 -9.726175 11.700877 19.490662 1.979452 0.000000 0.000000 0.000000 
-0.072188 0.111706 -0.052074 -2.931113 -2.890557 -85.765491 19.574537 3.112250 1.541111 -5.630381 0.522763 -8.531345 -5.546891 8.898109 45.682518 0.000000 0.000000 0.000000 -7.293044 -1.073558 -3.012962 1.122227 0.110637 7.119538 -3.987078 -15.628328 36.154566 0.000000 0.000000 0.000000 0.972698 2.872630 -39.741007 3.335051 -2.058123 6.358953 -0.867734 -1.481875 41.325165 9.616998 -6.689614 -16.066052 0.000000 0.000000 0.000000 18.588290 0.599927 -0.643648 -59.753093 3.347303 -12.358321 -31.052086 -52.713786 18.496784 0.000000 0.000000 0.000000 -10.350697 -4.096209 -1.292148 47.730690 -2.629806 -9.468184 11.146894 21.863855 2.144205 0.000000 0.000000 0.000000 
-0.072697 0.111454 -0.051186 -2.648443 -2.815301 -85.964403 18.970587 3.037573 1.700290 -4.882041 0.500722 -8.344766 -5.446999 8.979630 46.007992 0.000000 0.000000 0.000000 -7.930953 -1.172379 -3.686992 2.444362 -0.118517 8.305976 -4.348175 -16.052634 35.979957 0.000000 0.000000 0.000000 0.973982 2.886598 -39.729513 3.533143 -2.147150 6.131525 -1.004826 -1.573659 41.064296 8.994298 -6.111525 -16.645519 0.000000 0.000000 0.000000 19.729995 0.570736 -0.664818 -59.160623 4.110545 -12.346674 -31.760130 -55.639610 20.015528 0.000000 0.000000 0.000000 -12.581883 -4.524689 -1.250487 48.136092 -2.146815 -9.263523 8.961190 23.864191 1.935678 0.000000 0.000000 0.000000 
-0.073076 0.111658 -0.050099 -2.213960 -2.724623 -86.171338 18.469892 2.981710 1.937300 -4.561779 0.500653 -7.977229 -5.809126 8.625290 46.077071 0.000000 0.000000 0.000000 -9.003374 -1.375441 -4.217535 3.762473 -0.363573 9.457874 -3.633965 -15.360279 35.514207 0.000000 0.000000 0.000000 1.187257 3.023033 -39.251869 3.685539 -2.158438 5.192145 -1.519698 -1.864940 41.170990 8.090139 -5.484761 -16.824794 0.000000 0.000000 0.000000 20.210437 1.569094 -0.982953 -57.644694 4.459866 -11.982053 -34.414523 -57.823191 22.663295 0.000000 0.000000 0.000000 -13.636746 -3.607396 -0.877734 47.469019 -1.392051 -8.879197 6.218506 26.085053 1.520260 0.000000 0.000000 0.000000 
-0.073443 0.109278 -0.049235 -1.853678 -2.586185 -86.078073 17.843947 2.896936 1.931774 -4.271854 0.490467 -7.918964 -5.702864 8.536194 45.545398 0.000000 0.000000 0.000000 -9.294054 -1.394097 -5.356626 4.431810 -0.487008 10.498955 -3.739964 -15.467210 35.463750 0.000000 0.000000 0.000000 1.086037 3.010204 -39.723464 4.130254 -2.390473 5.209844 -1.825086 -2.052778 41.564635 7.754688 -5.468792 -16.053493 0.000000 0.000000 0.000000 19.145650 1.507918 -1.068225 -56.895300 4.823602 -11.998879 -32.772316 -61.864895 23.744527 0.000000 0.000000 0.000000 -13.550705 -3.591798 -0.847821 47.863130 -0.846197 -8.912069 2.164311 31.863100 0.860408 0.000000 0.000000 0.000000 
-0.073884 0.109767 -0.048875 -1.408274 -2.888367 -86.252392 17.825522 2.907475 2.433854 -3.889507 0.469539 -8.294124 -6.333379 7.975384 45.772761 0.000000 0.000000 0.000000 -10.027246 -1.523580 -6.149382 5.891886 -0.779997 12.109064 -3.304597 -15.081668 35.048045 0.000000 0.000000 0.000000 1.754814 3.575813 -39.724862 4.315096 -2.483306 5.153301 -2.441274 -2.785904 41.880051 7.620385 -5.508914 -16.264454 0.000000 0.000000 0.000000 18.192691 2.317980 -1.363393 -56.482637 5.157231 -11.963963 -36.266595 -66.684648 28.993752 0.000000 0.000000 0.000000 -14.332470 -3.937363 -0.833976 49.278219 -0.443978 -9.203511 -0.958032 40.337165 0.028242 0.000000 0.000000 0.000000 
